# xmcd CD database file
#
# Track frame offsets:
#	150
#	28472
#	54067
#	83432
#	112840
#	138812
#	153892
#	180700
#
# Disc length: 2734 seconds
#
# Revision: 2
# Processed by: cddbd v1.4PL0 Copyright (c) Steve Scherf et al.
# Submitted via: CDex 1.50Beta7
#
DISCID=520aac08
DTITLE=Patrick O'Hearn - Trust
DYEAR=1995
DGENRE=New Age
TTITLE0=Liberty
TTITLE1=Two Continents
TTITLE2=Equinox
TTITLE3=Trust
TTITLE4=Synergy
TTITLE5=The Lone Man
TTITLE6=3 Circles
TTITLE7=Farewell
EXTD=Patrick O'Hearn - Electronics - Bass - Percussion - Textural Guitar\nWarren Cuccurullo - Guitar (Liberty]\nDavid Torn - Textural Guitar (The Lone Man, 3 Circles]\nPeter Maunu - Textural Guitar (Farewell]\nTerry Bozzio - Turkisn Drum (Two Continents)
EXTD=\n\nAll songs composed by Patrick O'Hearn YEAR: 1995
EXTT0=
EXTT1=
EXTT2=
EXTT3=
EXTT4=
EXTT5=
EXTT6=
EXTT7=
PLAYORDER=
